<svg xmlns="http://www.w3.org/2000/svg" viewBox="0 0 1200 940">
  <defs>
    <style>
      .cls-1 {
        fill: #f7fbfb;
      }

      .cls-10, .cls-11, .cls-2, .cls-5, .cls-7, .cls-9 {
        fill: none;
      }

      .cls-2, .cls-5 {
        stroke: #c8c8d3;
      }

      .cls-2, .cls-5, .cls-7 {
        stroke-miterlimit: 10;
        stroke-width: 1.25px;
      }

      .cls-2 {
        opacity: 0.3;
      }

      .cls-3 {
        fill: #404452;
      }

      .cls-4 {
        fill: #6e6e80;
      }

      .cls-6 {
        fill: #8e8ea0;
      }

      .cls-7 {
        stroke: #c5c5d2;
      }

      .cls-8 {
        fill: #5436da;
      }

      .cls-10 {
        stroke: #e6a2e4;
        stroke-dasharray: 5.55 2.4;
      }

      .cls-10, .cls-11 {
        stroke-linejoin: round;
        stroke-width: 1.5px;
      }

      .cls-11 {
        stroke: #27b5ea;
        stroke-linecap: square;
      }

      .cls-12 {
        fill: #e6a2e4;
      }
    </style>
  </defs>
  <title>adsfdsfgcompute_diagram-linear</title>
  <g id="New_Labels" data-name="New Labels">
    <rect class="cls-1" x="180.43" y="110" width="969.89" height="689.49"/>
    <g>
      <path class="cls-2" d="M294.64,799.7V110.22"/>
      <path class="cls-2" d="M432.85,799.7V110.22"/>
      <path class="cls-2" d="M571.07,799.7V110.22"/>
      <path class="cls-2" d="M709.29,799.7V110.22"/>
      <path class="cls-2" d="M847.88,799.7V110.22"/>
      <path class="cls-2" d="M986.1,799.7V110.22"/>
      <path class="cls-2" d="M1124.32,799.7V110.22"/>
      <path class="cls-2" d="M180.43,640.08h969.88"/>
      <path class="cls-2" d="M180.43,763.31h969.88"/>
      <path class="cls-2" d="M180.43,393.61h969.88"/>
      <path class="cls-2" d="M180.43,516.85h969.88"/>
      <path class="cls-2" d="M180.43,270.88h969.88"/>
      <path class="cls-2" d="M180.43,147h969.88"/>
    </g>
    <g>
      <path class="cls-3" d="M364.44,51.07h7.86c4.35,0,7,2.56,7,6.34s-2.78,6.45-7,6.45h-4.08V70h-3.78Zm7.62,9.69a3.14,3.14,0,0,0,3.48-3.35c0-1.86-1.08-3.24-3.48-3.24h-3.84v6.59Z"/>
      <path class="cls-3" d="M383.13,55.92h3.48v2.73c.46-2.1,2.11-2.83,4.21-2.83h.43v3.64h-.75c-2.4,0-3.7,1.19-3.7,4V70h-3.67Z"/>
      <path class="cls-3" d="M394.23,63.94v-2c0-3.59,2.4-6.34,6.61-6.34s6.61,2.75,6.61,6.34v2c0,3.59-2.4,6.34-6.61,6.34S394.23,67.53,394.23,63.94Zm9.66-2.24a3.05,3.05,0,1,0-6.1,0v2.48c0,1.84,1,3.22,3,3.22s3.05-1.38,3.05-3.22Z"/>
      <path class="cls-3" d="M411.34,70.8h3.57c.48,1,1.59,1.4,3,1.4,1.86,0,3.05-1,3.05-2.59V67.4a4.92,4.92,0,0,1-4,1.91,5.53,5.53,0,0,1-5.78-5.83v-2A5.5,5.5,0,0,1,417,55.6a4.68,4.68,0,0,1,4.15,2v-1.7h3.51V69.66c0,3-2.81,5.32-6.72,5.32C414.64,75,411.91,73.44,411.34,70.8ZM421,63.29V61.67a3,3,0,0,0-3.05-3.13,2.83,2.83,0,0,0-3.1,3.13v1.62a2.8,2.8,0,0,0,3,3.08A3,3,0,0,0,421,63.29Z"/>
      <path class="cls-3" d="M429.62,55.92h3.48v2.73c.46-2.1,2.11-2.83,4.21-2.83h.44v3.64H437c-2.4,0-3.7,1.19-3.7,4V70h-3.67Z"/>
      <path class="cls-3" d="M440.72,64V62.11c0-3.81,2.27-6.51,6.48-6.51s6.26,2.78,6.26,6.15v2.46h-9.18v.35a2.78,2.78,0,0,0,3,3.08,2.87,2.87,0,0,0,2.89-1.78h3.21c-.48,2.56-3,4.42-6.1,4.42C443.28,70.28,440.72,68,440.72,64Zm3.56-2.4h5.8v-.35c0-1.76-.91-3.08-2.88-3.08s-2.92,1.4-2.92,3.29Z"/>
      <path class="cls-3" d="M457.22,65.8v-.24h3.24v.19c0,1.21,1.1,1.94,2.83,1.94,1.54,0,2.67-.62,2.67-1.7,0-.67-.35-1.08-1.16-1.27l-4.16-.94c-2.1-.49-3.21-1.57-3.21-3.7,0-2.89,2.35-4.48,5.67-4.48s5.56,1.7,5.56,4.48v.22h-3.21v-.25c0-1.08-.68-1.83-2.3-1.83s-2.29.54-2.29,1.54c0,.7.35,1,1.08,1.18L466.2,62c2.08.51,3.13,1.62,3.13,3.59,0,2.72-2.59,4.69-6.07,4.69S457.22,68.8,457.22,65.8Z"/>
      <path class="cls-3" d="M472.9,65.8v-.24h3.24v.19c0,1.21,1.11,1.94,2.84,1.94,1.53,0,2.67-.62,2.67-1.7,0-.67-.35-1.08-1.16-1.27l-4.16-.94c-2.1-.49-3.21-1.57-3.21-3.7,0-2.89,2.35-4.48,5.67-4.48s5.56,1.7,5.56,4.48v.22h-3.21v-.25c0-1.08-.68-1.83-2.3-1.83s-2.29.54-2.29,1.54c0,.7.35,1,1.08,1.18L481.89,62c2.08.51,3.13,1.62,3.13,3.59,0,2.72-2.59,4.69-6.07,4.69S472.9,68.8,472.9,65.8Z"/>
      <path class="cls-3" d="M498.55,50.12a2.14,2.14,0,1,1-2.13,2.13A2.07,2.07,0,0,1,498.55,50.12Zm-1.83,5.8h3.67V70h-3.67Z"/>
      <path class="cls-3" d="M505.6,55.92h3.51V57.6c.7-1.3,2.13-2,4.13-2,3,0,5,2,5,5.37v9h-3.67V61.57c0-1.62-.78-2.78-2.56-2.78a2.53,2.53,0,0,0-2.7,2.86V70H505.6Z"/>
      <path class="cls-3" d="M548.25,70h-3.61V58.35l-3.54,7h-3.35l-3.53-7V70H530.6V51.07h3.48l5.35,10.79,5.34-10.79h3.48Z"/>
      <path class="cls-3" d="M552.88,63.94v-2c0-3.59,2.4-6.34,6.61-6.34s6.61,2.75,6.61,6.34v2c0,3.59-2.4,6.34-6.61,6.34S552.88,67.53,552.88,63.94Zm9.66-2.24a3.05,3.05,0,1,0-6.1,0v2.48c0,1.84,1,3.22,3,3.22s3-1.38,3-3.22Z"/>
      <path class="cls-3" d="M570.45,55.92H574V57.6c.7-1.3,2.13-2,4.13-2,3,0,5,2,5,5.37v9h-3.67V61.57c0-1.62-.79-2.78-2.57-2.78a2.53,2.53,0,0,0-2.7,2.86V70h-3.67Z"/>
      <path class="cls-3" d="M588.68,66V58.89h-2v-3h2V52.09h3.69v3.83h3v3h-3V65.7c0,.91.36,1.29,1.33,1.29h1.48v3h-2.54C590,70,588.68,68.45,588.68,66Z"/>
      <path class="cls-3" d="M598.86,64V62.11c0-3.81,2.26-6.51,6.47-6.51s6.27,2.78,6.27,6.15v2.46h-9.18v.35a2.78,2.78,0,0,0,3,3.08,2.88,2.88,0,0,0,2.89-1.78h3.21c-.49,2.56-3,4.42-6.1,4.42C601.42,70.28,598.86,68,598.86,64Zm3.56-2.4h5.8v-.35c0-1.76-.92-3.08-2.89-3.08s-2.91,1.4-2.91,3.29Z"/>
      <path class="cls-3" d="M615.27,67.32l6.94-8.56H615.6V55.92h10.85v2.65l-6.94,8.56h7.1V70H615.27Z"/>
      <path class="cls-3" d="M643.08,70h-3.51V68.29a4.64,4.64,0,0,1-4.08,2c-3.16,0-4.91-2.18-4.91-5.37v-9h3.67V64.4c0,1.78.84,2.81,2.49,2.81a2.53,2.53,0,0,0,2.67-2.84V55.92h3.67Z"/>
      <path class="cls-3" d="M648.05,55.92h3.51V57.6c.7-1.3,2.05-2,4.05-2a4.62,4.62,0,0,1,4,2,5.54,5.54,0,0,1,4.64-2c2.94,0,5,2,5,5.37v9h-3.67V61.57c0-1.62-.73-2.78-2.51-2.78-1.62,0-2.62,1-2.62,2.86V70h-3.67V61.57c0-1.62-.73-2.78-2.51-2.78s-2.62,1-2.62,2.86V70h-3.67Z"/>
      <path class="cls-3" d="M673.56,65.91c0-3,2.3-4.45,5.67-4.45a5.65,5.65,0,0,1,3.57,1.19V60.73a2.23,2.23,0,0,0-2.43-2.27,2.53,2.53,0,0,0-2.43,1.32h-3.4c.81-2.72,3-4.18,6-4.18,3.5,0,5.91,2.13,5.91,5.4v9h-3.54v-1.3a5.3,5.3,0,0,1-4,1.62C675.72,70.28,673.56,68.64,673.56,65.91Zm9.24-.13c0-1.25-1.22-2-2.87-2s-2.8.7-2.8,2,1.16,2,2.7,2S682.8,67,682.8,65.78Z"/>
      <path class="cls-3" d="M691,51.07h4l-2.43,7.15h-3Z"/>
      <path class="cls-3" d="M696.49,65.8v-.24h3.24v.19c0,1.21,1.1,1.94,2.83,1.94,1.54,0,2.67-.62,2.67-1.7,0-.67-.35-1.08-1.16-1.27l-4.15-.94c-2.11-.49-3.22-1.57-3.22-3.7,0-2.89,2.35-4.48,5.67-4.48s5.56,1.7,5.56,4.48v.22h-3.21v-.25c0-1.08-.67-1.83-2.29-1.83s-2.3.54-2.3,1.54c0,.7.35,1,1.08,1.18L705.48,62c2.07.51,3.13,1.62,3.13,3.59,0,2.72-2.59,4.69-6.08,4.69S696.49,68.8,696.49,65.8Z"/>
      <path class="cls-3" d="M728.08,63.91h-4v6h-3.78V51.07h8.53c4.45,0,6.83,2.75,6.83,6.42A6.13,6.13,0,0,1,732,63.32L735.9,70h-4.37Zm.32-3a3.19,3.19,0,0,0,3.51-3.4c0-2-1.22-3.32-3.51-3.32h-4.29v6.72Z"/>
      <path class="cls-3" d="M739.36,64V62.11c0-3.81,2.27-6.51,6.48-6.51s6.26,2.78,6.26,6.15v2.46h-9.17v.35a2.77,2.77,0,0,0,3,3.08,2.86,2.86,0,0,0,2.88-1.78H752c-.49,2.56-3,4.42-6.1,4.42C741.93,70.28,739.36,68,739.36,64Zm3.57-2.4h5.8v-.35c0-1.76-.92-3.08-2.89-3.08s-2.91,1.4-2.91,3.29Z"/>
      <path class="cls-3" d="M763.28,70h-3.83l-4.78-14h3.67l3,10.29,3-10.29h3.67Z"/>
      <path class="cls-3" d="M770.63,64V62.11c0-3.81,2.27-6.51,6.48-6.51s6.26,2.78,6.26,6.15v2.46h-9.18v.35a2.78,2.78,0,0,0,3,3.08,2.87,2.87,0,0,0,2.89-1.78h3.21c-.48,2.56-3,4.42-6.1,4.42C773.19,70.28,770.63,68,770.63,64Zm3.56-2.4H780v-.35c0-1.76-.92-3.08-2.89-3.08s-2.92,1.4-2.92,3.29Z"/>
      <path class="cls-3" d="M787.72,55.92h3.51V57.6c.7-1.3,2.13-2,4.13-2,3,0,5,2,5,5.37v9h-3.68V61.57c0-1.62-.78-2.78-2.56-2.78a2.53,2.53,0,0,0-2.7,2.86V70h-3.67Z"/>
      <path class="cls-3" d="M804.7,70.8h3.57c.48,1,1.59,1.4,3,1.4,1.86,0,3.05-1,3.05-2.59V67.4a4.92,4.92,0,0,1-4,1.91,5.53,5.53,0,0,1-5.78-5.83v-2a5.5,5.5,0,0,1,5.8-5.83,4.68,4.68,0,0,1,4.16,2v-1.7H818V69.66c0,3-2.81,5.32-6.72,5.32C808,75,805.27,73.44,804.7,70.8Zm9.64-7.51V61.67a3,3,0,0,0-3.05-3.13,2.83,2.83,0,0,0-3.1,3.13v1.62a2.8,2.8,0,0,0,3,3.08A3,3,0,0,0,814.34,63.29Z"/>
      <path class="cls-3" d="M822.36,64V62.11c0-3.81,2.27-6.51,6.48-6.51s6.26,2.78,6.26,6.15v2.46h-9.18v.35a2.78,2.78,0,0,0,3,3.08,2.87,2.87,0,0,0,2.89-1.78H835c-.48,2.56-3,4.42-6.1,4.42C824.92,70.28,822.36,68,822.36,64Zm3.56-2.4h5.81v-.35c0-1.76-.92-3.08-2.89-3.08s-2.92,1.4-2.92,3.29Z"/>
    </g>
    <g>
      <path class="cls-4" d="M47.31,522.26c-2.64.08-4.83,2-4.83,5.43,0,3.88,2.67,5.64,6.45,5.64h3.13c3.73,0,6.62-1.68,6.62-5.78,0-3.37-1.92-5.45-5.56-5.45h-.49v5.29H50.88v-7.32h2c4.35,0,7.51,2.68,7.51,7.51,0,5.26-3.75,7.85-8.37,7.85H49c-4.83,0-8.28-2.72-8.28-7.72,0-4.61,2.86-7.37,6.58-7.45Z"/>
      <path class="cls-4" d="M60,505.33H58.27a5.85,5.85,0,0,1,2,4.75c0,3.27-1.83,5.24-4.34,5.24-2.67,0-4.32-2.19-4.32-5.48a6,6,0,0,1,1.73-4.43H50.82a3.2,3.2,0,0,0-3.34,3.46,3.5,3.5,0,0,0,2.07,3.45v1.89a5.22,5.22,0,0,1-3.69-5.37c0-3.43,2.24-5.48,5-5.48H60Zm-4,.08c-1.73,0-2.94,2-2.94,4.13,0,2.3,1.08,3.83,3,3.83s3-1.59,3-3.72S57.73,505.41,56,505.41Z"/>
      <path class="cls-4" d="M46.18,497.79v-1.94h2.35c-1.57-.65-2.67-2.16-2.67-4.56a4.64,4.64,0,0,1,2.69-4.4,5.51,5.51,0,0,1-2.69-5c0-3,2.16-5,5.42-5H60V479H51.58c-2.35,0-3.94,1.16-3.94,3.43s1.37,3.94,4.24,3.94H60v2.05H51.58c-2.35,0-3.94,1.16-3.94,3.43s1.37,3.94,4.24,3.94H60v2.05Z"/>
      <path class="cls-4" d="M54.3,472H52.09c-3.75,0-6.23-2.13-6.23-6s2.61-5.85,6-5.85h2V470h.48c2.4,0,4.35-1.24,4.35-4.13a3.66,3.66,0,0,0-2.67-3.8v-1.84a5.45,5.45,0,0,1,4.23,5.64C60.32,469.47,58,472,54.3,472Zm-1.94-2v-8h-.65c-2.45,0-4.29,1.24-4.29,3.94,0,3,2,4.05,4.51,4.05Z"/>
      <path class="cls-4" d="M54.76,448h-.48v-2h.43c2.37,0,4-1.92,4-5.05s-1.35-5-3.75-5a3.1,3.1,0,0,0-3.07,2.69L50.47,444c-.7,2.73-2.29,3.75-4.45,3.75-3.35,0-5.29-2.64-5.29-6.53s2.18-6.61,5.4-6.61h.45v2h-.4c-2.24,0-3.78,1.72-3.78,4.64,0,2.64,1.22,4.51,3.46,4.51a2.71,2.71,0,0,0,2.88-2.35l1.46-5.48c.62-2.32,2.16-4,4.59-4,3.46,0,5.59,3,5.59,7S58.22,448,54.76,448Z"/>
      <path class="cls-4" d="M54.25,429.46H51.93a5.77,5.77,0,0,1-6.07-6.13c0-3.48,2.26-5.75,5.18-5.91v1.84a3.82,3.82,0,0,0-3.56,4c0,2.84,1.83,4.16,4.42,4.16h2.38c2.59,0,4.42-1.32,4.42-4.16a3.82,3.82,0,0,0-3.56-4v-1.84c2.92.16,5.18,2.43,5.18,5.91A5.77,5.77,0,0,1,54.25,429.46Z"/>
      <path class="cls-4" d="M54.22,413H52a6.17,6.17,0,0,1,0-12.34h2.26a6.17,6.17,0,0,1,0,12.34Zm-6.72-6.18c0,2.72,1.87,4.18,4.48,4.18H54.2c2.61,0,4.48-1.46,4.48-4.18s-1.87-4.19-4.48-4.19H52C49.37,402.62,47.5,404.08,47.5,406.81Z"/>
      <path class="cls-4" d="M46.18,395.6v-1.92h3.19c-2.14-.51-3.27-2-3.27-4.5v-.33H48v.41c0,2.62,1.72,4.29,5.2,4.29H60v2.05Z"/>
      <path class="cls-4" d="M54.3,385.61H52.09c-3.75,0-6.23-2.13-6.23-6s2.61-5.86,6-5.86h2v9.91h.48c2.4,0,4.35-1.24,4.35-4.13a3.67,3.67,0,0,0-2.67-3.81v-1.83a5.45,5.45,0,0,1,4.23,5.64C60.32,383.1,58,385.61,54.3,385.61Zm-1.94-2v-8h-.65c-2.45,0-4.29,1.24-4.29,3.94,0,3,2,4.05,4.51,4.05Z"/>
    </g>
    <g>
      <path class="cls-4" d="M642.94,882.55l-6.72-11.74h2.21l5.56,9.82,5.56-9.82h2.22L645,882.55v7.15h-2.1Z"/>
      <path class="cls-4" d="M652.9,884v-2.22c0-3.75,2.14-6.23,6-6.23s5.86,2.62,5.86,6v2h-9.91v.49c0,2.4,1.25,4.34,4.13,4.34a3.67,3.67,0,0,0,3.81-2.67h1.84A5.47,5.47,0,0,1,659,890,5.71,5.71,0,0,1,652.9,884Zm2-2h8v-.64c0-2.46-1.24-4.3-3.94-4.3-3,0-4,2-4,4.51Z"/>
      <path class="cls-4" d="M679.17,889.7V888a5.83,5.83,0,0,1-4.75,2c-3.26,0-5.24-1.84-5.24-4.35,0-2.67,2.19-4.32,5.48-4.32a6,6,0,0,1,4.43,1.73v-2.56a3.2,3.2,0,0,0-3.45-3.35,3.5,3.5,0,0,0-3.46,2.08h-1.89a5.23,5.23,0,0,1,5.37-3.7c3.43,0,5.48,2.24,5.48,5v9.17Zm-.08-4.05c0-1.72-2.05-2.94-4.13-2.94-2.29,0-3.83,1.08-3.83,3s1.59,3,3.72,3S679.09,887.44,679.09,885.65Z"/>
      <path class="cls-4" d="M686.71,875.88h1.91v3.19c.52-2.13,2-3.27,4.51-3.27h.33v1.92h-.41c-2.62,0-4.29,1.73-4.29,5.21v6.77h-2Z"/>
    </g>
    <path id="m728421d6d4" class="cls-5" d="M160,147.14h20"/>
    <path id="m728421d6d4-2" data-name="m728421d6d4" class="cls-5" d="M160,763.31h20"/>
    <path class="cls-5" d="M180,110.23V800h969.89"/>
    <g>
      <path class="cls-4" d="M83.11,141l-3.22,1.52V141l3.5-1.72H84.8v15.4H83.11Z"/>
      <path class="cls-4" d="M89,149.82v-5.76c0-2.93,2-5.13,5.4-5.13s5.39,2.2,5.39,5.13v5.76c0,2.93-2,5.13-5.39,5.13S89,152.75,89,149.82Zm9.1.07V144a3.7,3.7,0,0,0-7.4,0v5.9a3.7,3.7,0,0,0,7.4,0Z"/>
      <path class="cls-4" d="M103.49,152.22h1.87l-1.52,4.93h-1.41Z"/>
      <path class="cls-4" d="M108.84,149.82v-5.76c0-2.93,2-5.13,5.39-5.13s5.4,2.2,5.4,5.13v5.76c0,2.93-2,5.13-5.4,5.13S108.84,152.75,108.84,149.82Zm9.09.07V144a3.7,3.7,0,0,0-7.4,0v5.9a3.7,3.7,0,0,0,7.4,0Z"/>
      <path class="cls-4" d="M123.26,149.82v-5.76c0-2.93,2-5.13,5.39-5.13s5.39,2.2,5.39,5.13v5.76c0,2.93-2,5.13-5.39,5.13S123.26,152.75,123.26,149.82Zm9.09.07V144a3.7,3.7,0,0,0-7.4,0v5.9a3.7,3.7,0,0,0,7.4,0Z"/>
      <path class="cls-4" d="M137.67,149.82v-5.76c0-2.93,2-5.13,5.4-5.13s5.39,2.2,5.39,5.13v5.76c0,2.93-2,5.13-5.39,5.13S137.67,152.75,137.67,149.82Zm9.1.07V144a3.7,3.7,0,0,0-7.4,0v5.9a3.7,3.7,0,0,0,7.4,0Z"/>
    </g>
    <path class="cls-4" d="M137.67,766v-5.76c0-2.93,2-5.13,5.4-5.13s5.39,2.2,5.39,5.13V766c0,2.93-2,5.13-5.39,5.13S137.67,768.92,137.67,766Zm9.1.07v-5.9a3.7,3.7,0,0,0-7.4,0v5.9a3.7,3.7,0,0,0,7.4,0Z"/>
    <path id="m728421d6d4-3" data-name="m728421d6d4" class="cls-5" d="M160,640.08h20"/>
    <g>
      <path class="cls-4" d="M89.62,646.26l6.52-6.84a4.89,4.89,0,0,0,1.72-3.33,2.88,2.88,0,0,0-3.15-2.83,2.93,2.93,0,0,0-3.24,3.1v.35H89.86v-.42c0-2.81,2-4.42,4.85-4.42s4.84,1.65,4.84,4.22c0,1.87-1.3,3.3-2.53,4.56l-5.44,5.54h8v1.39H89.62Z"/>
      <path class="cls-4" d="M103.49,645.16h1.87l-1.52,4.93h-1.41Z"/>
      <path class="cls-4" d="M108.84,642.76V637c0-2.93,2-5.13,5.39-5.13s5.4,2.2,5.4,5.13v5.76c0,2.93-2,5.13-5.4,5.13S108.84,645.69,108.84,642.76Zm9.09.07v-5.9a3.7,3.7,0,0,0-7.4,0v5.9a3.7,3.7,0,0,0,7.4,0Z"/>
      <path class="cls-4" d="M123.26,642.76V637c0-2.93,2-5.13,5.39-5.13S134,634.07,134,637v5.76c0,2.93-2,5.13-5.39,5.13S123.26,645.69,123.26,642.76Zm9.09.07v-5.9a3.7,3.7,0,0,0-7.4,0v5.9a3.7,3.7,0,0,0,7.4,0Z"/>
      <path class="cls-4" d="M137.67,642.76V637c0-2.93,2-5.13,5.4-5.13s5.39,2.2,5.39,5.13v5.76c0,2.93-2,5.13-5.39,5.13S137.67,645.69,137.67,642.76Zm9.1.07v-5.9a3.7,3.7,0,0,0-7.4,0v5.9a3.7,3.7,0,0,0,7.4,0Z"/>
    </g>
    <path id="m728421d6d4-4" data-name="m728421d6d4" class="cls-5" d="M160,516.85h20"/>
    <g>
      <path class="cls-4" d="M96.36,520.67H89.05v-1.25l5.13-10.48h1.54l-5,10.45h5.66v-3.65h1.56v3.65h2.14v1.28H97.92v3.67H96.36Z"/>
      <path class="cls-4" d="M103.49,521.92h1.87l-1.52,4.93h-1.41Z"/>
      <path class="cls-4" d="M108.84,519.53v-5.77c0-2.92,2-5.13,5.39-5.13s5.4,2.21,5.4,5.13v5.77c0,2.92-2,5.12-5.4,5.12S108.84,522.45,108.84,519.53Zm9.09.06V513.7a3.7,3.7,0,0,0-7.4,0v5.89a3.7,3.7,0,0,0,7.4,0Z"/>
      <path class="cls-4" d="M123.26,519.53v-5.77c0-2.92,2-5.13,5.39-5.13s5.39,2.21,5.39,5.13v5.77c0,2.92-2,5.12-5.39,5.12S123.26,522.45,123.26,519.53Zm9.09.06V513.7a3.7,3.7,0,0,0-7.4,0v5.89a3.7,3.7,0,0,0,7.4,0Z"/>
      <path class="cls-4" d="M137.67,519.53v-5.77c0-2.92,2-5.13,5.4-5.13s5.39,2.21,5.39,5.13v5.77c0,2.92-2,5.12-5.39,5.12S137.67,522.45,137.67,519.53Zm9.1.06V513.7a3.7,3.7,0,0,0-7.4,0v5.89a3.7,3.7,0,0,0,7.4,0Z"/>
    </g>
    <path id="m728421d6d4-5" data-name="m728421d6d4" class="cls-5" d="M160,393.61h20"/>
    <g>
      <path class="cls-4" d="M96.86,385.71l-4.47,6.8v0a3.84,3.84,0,0,1,3.11-1.36,4.8,4.8,0,0,1,4.84,5.06A5.24,5.24,0,0,1,95,401.42a5.07,5.07,0,0,1-5.37-5.13,8.46,8.46,0,0,1,1.63-4.53l3.83-6.05ZM95,400.08a3.63,3.63,0,0,0,3.74-3.81A3.55,3.55,0,0,0,95,392.46a3.72,3.72,0,0,0-3.79,3.85A3.56,3.56,0,0,0,95,400.08Z"/>
      <path class="cls-4" d="M103.49,398.69h1.87l-1.52,4.93h-1.41Z"/>
      <path class="cls-4" d="M108.84,396.29v-5.76c0-2.93,2-5.13,5.39-5.13s5.4,2.2,5.4,5.13v5.76c0,2.93-2,5.13-5.4,5.13S108.84,399.22,108.84,396.29Zm9.09.07v-5.9a3.7,3.7,0,0,0-7.4,0v5.9a3.7,3.7,0,0,0,7.4,0Z"/>
      <path class="cls-4" d="M123.26,396.29v-5.76c0-2.93,2-5.13,5.39-5.13s5.39,2.2,5.39,5.13v5.76c0,2.93-2,5.13-5.39,5.13S123.26,399.22,123.26,396.29Zm9.09.07v-5.9a3.7,3.7,0,0,0-7.4,0v5.9a3.7,3.7,0,0,0,7.4,0Z"/>
      <path class="cls-4" d="M137.67,396.29v-5.76c0-2.93,2-5.13,5.4-5.13s5.39,2.2,5.39,5.13v5.76c0,2.93-2,5.13-5.39,5.13S137.67,399.22,137.67,396.29Zm9.1.07v-5.9a3.7,3.7,0,0,0-7.4,0v5.9a3.7,3.7,0,0,0,7.4,0Z"/>
    </g>
    <path id="m728421d6d4-6" data-name="m728421d6d4" class="cls-5" d="M160,270.38h20"/>
    <g>
      <path class="cls-4" d="M89.11,273.78a3.87,3.87,0,0,1,3.11-3.91,3.82,3.82,0,0,1-2.47-3.59c0-2.55,2-4.11,4.71-4.11s4.72,1.56,4.72,4.11a3.82,3.82,0,0,1-2.47,3.59,3.86,3.86,0,0,1,3.1,3.91c0,2.62-2.22,4.41-5.35,4.41S89.11,276.4,89.11,273.78Zm9.08,0c0-2-1.52-3.19-3.73-3.19s-3.72,1.19-3.72,3.19,1.61,3.13,3.72,3.13S98.19,275.65,98.19,273.78Zm-3.73-4.46a3,3,0,0,0,3.13-2.93,3.13,3.13,0,0,0-6.25,0A3,3,0,0,0,94.46,269.32Z"/>
      <path class="cls-4" d="M103.49,275.46h1.87l-1.52,4.93h-1.41Z"/>
      <path class="cls-4" d="M108.84,273.06v-5.77c0-2.92,2-5.12,5.39-5.12s5.4,2.2,5.4,5.12v5.77c0,2.93-2,5.13-5.4,5.13S108.84,276,108.84,273.06Zm9.09.06v-5.89a3.7,3.7,0,0,0-7.4,0v5.89a3.7,3.7,0,0,0,7.4,0Z"/>
      <path class="cls-4" d="M123.26,273.06v-5.77c0-2.92,2-5.12,5.39-5.12s5.4,2.2,5.4,5.12v5.77c0,2.93-2,5.13-5.4,5.13S123.26,276,123.26,273.06Zm9.09.06v-5.89a3.7,3.7,0,0,0-7.4,0v5.89a3.7,3.7,0,0,0,7.4,0Z"/>
      <path class="cls-4" d="M137.68,273.06v-5.77c0-2.92,2-5.12,5.39-5.12s5.39,2.2,5.39,5.12v5.77c0,2.93-2,5.13-5.39,5.13S137.68,276,137.68,273.06Zm9.09.06v-5.89a3.7,3.7,0,0,0-7.4,0v5.89a3.7,3.7,0,0,0,7.4,0Z"/>
    </g>
    <g>
      <path class="cls-4" d="M270.77,848.35l6.69-7a5.06,5.06,0,0,0,1.76-3.41A3,3,0,0,0,276,835a3,3,0,0,0-3.32,3.19v.36H271v-.43c0-2.89,2-4.54,5-4.54s5,1.69,5,4.34c0,1.92-1.34,3.38-2.6,4.67l-5.58,5.69H281v1.42H270.77Z"/>
      <path class="cls-4" d="M284.68,844.76v-5.92c0-3,2.05-5.26,5.53-5.26s5.53,2.26,5.53,5.26v5.92c0,3-2.05,5.26-5.53,5.26S284.68,847.76,284.68,844.76Zm9.33.07v-6.06a3.8,3.8,0,0,0-7.59,0v6.06a3.8,3.8,0,0,0,7.59,0Z"/>
      <path class="cls-4" d="M301.88,835.68l-3.29,1.56v-1.58l3.59-1.76h1.44v15.8h-1.74Z"/>
      <path class="cls-4" d="M308.84,833.9h9.21v1.42L313,840.85h.61c2.92,0,5,1.76,5,4.45s-2.48,4.72-5.49,4.72c-2.71,0-5.21-1.63-5.33-4.63h1.61a3.44,3.44,0,0,0,3.75,3.23c2.28,0,3.77-1.4,3.77-3.28s-1.43-3.2-3.66-3.2h-2.15v-1.36L316,835.3h-7.11Z"/>
    </g>
    <path id="m93b0483c22" class="cls-5" d="M294.64,819.7v-20"/>
    <g>
      <path class="cls-4" d="M408.94,848.35l6.69-7a5.06,5.06,0,0,0,1.76-3.41,3,3,0,0,0-3.23-2.92,3,3,0,0,0-3.32,3.19v.36h-1.65v-.43c0-2.89,2-4.54,5-4.54s5,1.69,5,4.34c0,1.92-1.33,3.38-2.6,4.67L411,848.28h8.2v1.42H408.94Z"/>
      <path class="cls-4" d="M422.85,844.76v-5.92c0-3,2.06-5.26,5.53-5.26s5.54,2.26,5.54,5.26v5.92c0,3-2.06,5.26-5.54,5.26S422.85,847.76,422.85,844.76Zm9.33.07v-6.06a3.8,3.8,0,0,0-7.59,0v6.06a3.8,3.8,0,0,0,7.59,0Z"/>
      <path class="cls-4" d="M440.05,835.68l-3.29,1.56v-1.58l3.59-1.76h1.44v15.8h-1.74Z"/>
      <path class="cls-4" d="M453.4,845.93h-7.5v-1.29l5.26-10.74h1.59l-5.15,10.72h5.8v-3.75H455v3.75h2.19v1.31H455v3.77h-1.6Z"/>
    </g>
    <path id="m93b0483c22-2" data-name="m93b0483c22" class="cls-5" d="M432.85,819.7v-20"/>
    <g>
      <path class="cls-4" d="M547,848.35l6.68-7a5,5,0,0,0,1.76-3.41,3,3,0,0,0-3.23-2.92,3,3,0,0,0-3.32,3.19v.36h-1.65v-.43c0-2.89,2-4.54,5-4.54s5,1.69,5,4.34c0,1.92-1.33,3.38-2.6,4.67L549,848.28h8.19v1.42H547Z"/>
      <path class="cls-4" d="M560.93,844.76v-5.92c0-3,2.06-5.26,5.53-5.26s5.54,2.26,5.54,5.26v5.92c0,3-2.06,5.26-5.54,5.26S560.93,847.76,560.93,844.76Zm9.33.07v-6.06a3.8,3.8,0,0,0-7.59,0v6.06a3.8,3.8,0,0,0,7.59,0Z"/>
      <path class="cls-4" d="M578.14,835.68l-3.3,1.56v-1.58l3.59-1.76h1.45v15.8h-1.74Z"/>
      <path class="cls-4" d="M584.25,845.82h1.65a3.64,3.64,0,0,0,3.71,2.78,3.75,3.75,0,0,0,4-3.89,3.71,3.71,0,0,0-3.77-3.84,4.36,4.36,0,0,0-3.59,1.86h-1.65l1.49-8.83H594v1.42h-6.51l-1,5.67a4.9,4.9,0,0,1,3.7-1.54,5.05,5.05,0,0,1,5.13,5.22,5.4,5.4,0,0,1-5.69,5.35A5.18,5.18,0,0,1,584.25,845.82Z"/>
    </g>
    <path id="m93b0483c22-3" data-name="m93b0483c22" class="cls-5" d="M571.07,819.7v-20"/>
    <g>
      <path class="cls-4" d="M685.51,848.35l6.69-7a5.06,5.06,0,0,0,1.76-3.41,3,3,0,0,0-3.23-2.92,3,3,0,0,0-3.32,3.19v.36h-1.65v-.43c0-2.89,2-4.54,5-4.54s5,1.69,5,4.34c0,1.92-1.33,3.38-2.6,4.67l-5.58,5.69h8.2v1.42H685.51Z"/>
      <path class="cls-4" d="M699.42,844.76v-5.92c0-3,2.06-5.26,5.53-5.26s5.54,2.26,5.54,5.26v5.92c0,3-2.06,5.26-5.54,5.26S699.42,847.76,699.42,844.76Zm9.33.07v-6.06a3.8,3.8,0,0,0-7.59,0v6.06a3.8,3.8,0,0,0,7.59,0Z"/>
      <path class="cls-4" d="M716.62,835.68l-3.29,1.56v-1.58l3.59-1.76h1.44v15.8h-1.74Z"/>
      <path class="cls-4" d="M729.88,833.9l-4.59,7v0a3.92,3.92,0,0,1,3.19-1.4,4.92,4.92,0,0,1,5,5.19,5.38,5.38,0,0,1-5.51,5.33,5.21,5.21,0,0,1-5.51-5.26,8.67,8.67,0,0,1,1.67-4.65L728,833.9Zm-2,14.74a3.72,3.72,0,0,0,3.83-3.9,3.64,3.64,0,0,0-3.75-3.91,3.81,3.81,0,0,0-3.88,3.95A3.65,3.65,0,0,0,727.92,848.64Z"/>
    </g>
    <path id="m93b0483c22-4" data-name="m93b0483c22" class="cls-5" d="M709.29,819.7v-20"/>
    <g>
      <path class="cls-4" d="M824.57,848.35l6.69-7a5.06,5.06,0,0,0,1.76-3.41,3,3,0,0,0-3.23-2.92,3,3,0,0,0-3.32,3.19v.36h-1.65v-.43c0-2.89,2-4.54,5-4.54s5,1.69,5,4.34c0,1.92-1.34,3.38-2.6,4.67l-5.58,5.69h8.2v1.42H824.57Z"/>
      <path class="cls-4" d="M838.48,844.76v-5.92c0-3,2-5.26,5.53-5.26s5.53,2.26,5.53,5.26v5.92c0,3-2,5.26-5.53,5.26S838.48,847.76,838.48,844.76Zm9.33.07v-6.06a3.8,3.8,0,0,0-7.59,0v6.06a3.8,3.8,0,0,0,7.59,0Z"/>
      <path class="cls-4" d="M855.68,835.68l-3.29,1.56v-1.58L856,833.9h1.44v15.8h-1.74Z"/>
      <path class="cls-4" d="M869.75,835.32h-8.13V833.9h9.92v1.22l-7,14.58h-1.74Z"/>
    </g>
    <path id="m93b0483c22-5" data-name="m93b0483c22" class="cls-5" d="M847.88,819.7v-20"/>
    <g>
      <path class="cls-4" d="M962,848.35l6.68-7a5,5,0,0,0,1.76-3.41,2.94,2.94,0,0,0-3.22-2.92,3,3,0,0,0-3.33,3.19v.36h-1.64v-.43c0-2.89,2-4.54,5-4.54s5,1.69,5,4.34c0,1.92-1.33,3.38-2.59,4.67L964,848.28h8.2v1.42H962Z"/>
      <path class="cls-4" d="M975.9,844.76v-5.92c0-3,2.05-5.26,5.53-5.26s5.53,2.26,5.53,5.26v5.92c0,3-2.05,5.26-5.53,5.26S975.9,847.76,975.9,844.76Zm9.32.07v-6.06a3.8,3.8,0,0,0-7.59,0v6.06a3.8,3.8,0,0,0,7.59,0Z"/>
      <path class="cls-4" d="M993.1,835.68l-3.3,1.56v-1.58l3.59-1.76h1.45v15.8H993.1Z"/>
      <path class="cls-4" d="M999.2,845.5a4,4,0,0,1,3.18-4,3.92,3.92,0,0,1-2.53-3.68c0-2.62,2-4.22,4.83-4.22s4.84,1.6,4.84,4.22a3.92,3.92,0,0,1-2.53,3.68,4,4,0,0,1,3.18,4c0,2.69-2.28,4.52-5.49,4.52S999.2,848.19,999.2,845.5Zm9.3,0c0-2-1.56-3.27-3.82-3.27s-3.81,1.22-3.81,3.27,1.64,3.21,3.81,3.21S1008.5,847.42,1008.5,845.5Zm-3.82-4.58a3.07,3.07,0,0,0,3.21-3,3.21,3.21,0,0,0-6.41,0A3.06,3.06,0,0,0,1004.68,840.92Z"/>
    </g>
    <path id="m93b0483c22-6" data-name="m93b0483c22" class="cls-5" d="M986.1,819.7v-20"/>
    <g>
      <path class="cls-4" d="M1100.54,848.35l6.69-7a5.06,5.06,0,0,0,1.76-3.41,3,3,0,0,0-3.23-2.92,3,3,0,0,0-3.32,3.19v.36h-1.65v-.43c0-2.89,2-4.54,5-4.54s5,1.69,5,4.34c0,1.92-1.33,3.38-2.6,4.67l-5.58,5.69h8.2v1.42h-10.21Z"/>
      <path class="cls-4" d="M1114.45,844.76v-5.92c0-3,2.06-5.26,5.53-5.26s5.54,2.26,5.54,5.26v5.92c0,3-2.06,5.26-5.54,5.26S1114.45,847.76,1114.45,844.76Zm9.33.07v-6.06a3.8,3.8,0,0,0-7.59,0v6.06a3.8,3.8,0,0,0,7.59,0Z"/>
      <path class="cls-4" d="M1131.66,835.68l-3.3,1.56v-1.58l3.59-1.76h1.44v15.8h-1.73Z"/>
      <path class="cls-4" d="M1140.87,849.7l4.45-6.82v0a4.06,4.06,0,0,1-3,1.24,5,5,0,0,1-5-5.19,5.51,5.51,0,0,1,11-.07,7.33,7.33,0,0,1-1.13,3.82l-4.47,7Zm2-14.74a3.73,3.73,0,0,0-3.83,3.93,3.53,3.53,0,0,0,3.74,3.88,3.86,3.86,0,0,0,3.89-3.95A3.71,3.71,0,0,0,1142.85,835Z"/>
    </g>
    <path id="m93b0483c22-7" data-name="m93b0483c22" class="cls-5" d="M1124.32,819.7v-20"/>
    <g>
      <path class="cls-6" d="M970.86,756.2h-3.23v4.93h-3.08v-15.4h7c3.63,0,5.57,2.24,5.57,5.24a5,5,0,0,1-3,4.75l3.21,5.41h-3.56Zm.27-2.48A2.6,2.6,0,0,0,974,751a2.55,2.55,0,0,0-2.86-2.71h-3.5v5.48Z"/>
      <path class="cls-6" d="M979.49,757.83c0-2.48,1.87-3.63,4.62-3.63a4.6,4.6,0,0,1,2.9,1v-1.56a1.82,1.82,0,0,0-2-1.85,2.05,2.05,0,0,0-2,1.08h-2.77a4.7,4.7,0,0,1,4.9-3.41c2.86,0,4.82,1.74,4.82,4.4v7.3h-2.88v-1a4.33,4.33,0,0,1-3.3,1.32C981.25,761.4,979.49,760.05,979.49,757.83Zm7.52-.11c0-1-1-1.6-2.33-1.6s-2.29.57-2.29,1.62,1,1.68,2.2,1.68S987,758.69,987,757.72Z"/>
      <path class="cls-6" d="M995.08,745a1.74,1.74,0,1,1-1.73,1.74A1.69,1.69,0,0,1,995.08,745Zm-1.49,4.73h3v11.44h-3Z"/>
      <path class="cls-6" d="M1000.28,749.69h2.86v1.36a3.54,3.54,0,0,1,3.36-1.62c2.49,0,4,1.62,4,4.38v7.32h-3v-6.84a2,2,0,0,0-2.09-2.27,2.07,2.07,0,0,0-2.2,2.34v6.77h-3Z"/>
      <path class="cls-6" d="M1016.8,759.77v1.36h-2.86V745.07h3V751a4,4,0,0,1,3.28-1.54c3.08,0,4.8,2.29,4.8,5v1.89a4.73,4.73,0,0,1-4.82,5A3.79,3.79,0,0,1,1016.8,759.77Zm5.21-3.54V754.6a2.55,2.55,0,1,0-5.08-.05v1.68a2.53,2.53,0,0,0,2.53,2.75A2.47,2.47,0,0,0,1022,756.23Z"/>
      <path class="cls-6" d="M1027.49,756.23V754.6c0-2.93,2-5.17,5.39-5.17s5.39,2.24,5.39,5.17v1.63c0,2.92-2,5.17-5.39,5.17S1027.49,759.15,1027.49,756.23Zm7.88-1.83a2.49,2.49,0,1,0-5,0v2a2.49,2.49,0,1,0,5,0Z"/>
      <path class="cls-6" d="M1053.56,761.13h-2.79l-2.51-7.87-2.51,7.87H1043l-3-11.44h2.9l1.67,7.68,2.33-7.68h2.73l2.34,7.68,1.67-7.68h2.9Z"/>
    </g>
    <g>
      <path class="cls-6" d="M825.78,723.25h6.91c2.7,0,4.4,1.58,4.4,3.89a3.88,3.88,0,0,1-1.94,3.54,3.47,3.47,0,0,1,2.86,3.63c0,2.58-2.13,4.34-5.21,4.34h-7Zm6.23,6.38a1.89,1.89,0,0,0,2-2,1.82,1.82,0,0,0-2-1.91h-3.21v4Zm.63,6.6a2,2,0,0,0,2.29-2.11,2,2,0,0,0-2.31-2.1h-3.85v4.21Z"/>
      <path class="cls-6" d="M853.72,738.65h-3.06l-1-3.24h-6l-1,3.24h-3.06l5.52-15.4h3.13ZM844.41,733h4.43l-2.2-7Z"/>
      <path class="cls-6" d="M855.85,734.18v-.39h2.95v.33c0,1.43,1.12,2.46,3.19,2.46,1.83,0,3-.82,3-2.24a1.67,1.67,0,0,0-1.46-1.74l-4-1c-2.33-.59-3.44-1.67-3.44-4,0-2.9,2.2-4.64,5.66-4.64s5.57,1.89,5.57,4.6v.37h-2.84v-.31c0-1.3-.84-2.29-2.73-2.29-1.63,0-2.68.66-2.68,2a1.53,1.53,0,0,0,1.32,1.62l4.22,1.13c2.27.59,3.37,1.93,3.37,4,0,2.93-2.62,4.87-6.1,4.87S855.85,737.2,855.85,734.18Z"/>
      <path class="cls-6" d="M870.68,734.18v-.39h3v.33c0,1.43,1.12,2.46,3.19,2.46,1.83,0,3-.82,3-2.24a1.66,1.66,0,0,0-1.45-1.74l-4-1c-2.34-.59-3.44-1.67-3.44-4,0-2.9,2.2-4.64,5.66-4.64s5.56,1.89,5.56,4.6v.37h-2.83v-.31c0-1.3-.84-2.29-2.73-2.29-1.63,0-2.69.66-2.69,2a1.54,1.54,0,0,0,1.32,1.62l4.23,1.13c2.26.59,3.36,1.93,3.36,4,0,2.93-2.61,4.87-6.09,4.87S870.68,737.2,870.68,734.18Z"/>
      <path class="cls-6" d="M885.55,730.26h6.58V733h-6.58Z"/>
      <path class="cls-6" d="M895.37,722.59h3v6a3.63,3.63,0,0,1,3.23-1.63c2.49,0,4,1.67,4,4.38v7.33h-3V731.8a2,2,0,0,0-2.09-2.26,2.06,2.06,0,0,0-2.2,2.33v6.78h-3Z"/>
      <path class="cls-6" d="M908.54,735.35c0-2.49,1.87-3.63,4.62-3.63a4.61,4.61,0,0,1,2.91,1v-1.56a1.82,1.82,0,0,0-2-1.85,2.06,2.06,0,0,0-2,1.08h-2.78a4.72,4.72,0,0,1,4.91-3.41c2.86,0,4.82,1.74,4.82,4.4v7.31h-2.88v-1.06a4.33,4.33,0,0,1-3.3,1.32C910.3,738.91,908.54,737.57,908.54,735.35Zm7.53-.11c0-1-1-1.61-2.33-1.61s-2.29.57-2.29,1.63.94,1.67,2.2,1.67S916.07,736.21,916.07,735.24Z"/>
      <path class="cls-6" d="M922,735.26v-.2h2.64v.16c0,1,.9,1.58,2.31,1.58s2.18-.51,2.18-1.39c0-.55-.28-.88-.94-1l-3.39-.77c-1.72-.4-2.62-1.28-2.62-3,0-2.35,1.91-3.65,4.62-3.65s4.53,1.39,4.53,3.65v.18h-2.62v-.2c0-.88-.55-1.49-1.87-1.49s-1.87.44-1.87,1.25c0,.57.29.84.88,1l3.48.86c1.69.41,2.55,1.32,2.55,2.92,0,2.23-2.11,3.83-5,3.83S922,737.7,922,735.26Z"/>
      <path class="cls-6" d="M934.68,722.59h3v6a3.65,3.65,0,0,1,3.24-1.63c2.48,0,4.05,1.67,4.05,4.38v7.33h-3V731.8a2,2,0,0,0-2.09-2.26,2.06,2.06,0,0,0-2.2,2.33v6.78h-3Z"/>
    </g>
    <line class="cls-7" x1="914.15" y1="594.15" x2="914.15" y2="535.15"/>
    <path id="m5552310466" class="cls-8" d="M914.15,599.15a5,5,0,1,0-3.53-1.46A5,5,0,0,0,914.15,599.15Z"/>
    <rect class="cls-9" x="180" y="110.23" width="970" height="690"/>
    <rect class="cls-9" x="180" y="110.23" width="970" height="690"/>
    <rect class="cls-9" x="180" y="110.23" width="970" height="690"/>
    <rect class="cls-9" x="180" y="110.23" width="970" height="690"/>
    <rect class="cls-9" x="180" y="110.23" width="970" height="690"/>
    <rect class="cls-9" x="180" y="110.23" width="970" height="690"/>
    <rect class="cls-9" x="180" y="110.23" width="970" height="690"/>
    <rect class="cls-9" x="180" y="110.23" width="970" height="690"/>
    <rect class="cls-9" x="180" y="110.23" width="970" height="690"/>
    <rect class="cls-9" x="180" y="110.23" width="970" height="690"/>
    <rect class="cls-9" x="180" y="110.23" width="970" height="690"/>
    <rect class="cls-9" x="180" y="110.23" width="970" height="690"/>
    <rect class="cls-9" x="180" y="110.23" width="970" height="690"/>
    <rect class="cls-9" x="180" y="110.23" width="970" height="690"/>
    <rect class="cls-9" x="180" y="110.23" width="970" height="690"/>
    <rect class="cls-9" x="180" y="110.23" width="970" height="690"/>
    <rect class="cls-9" x="180" y="110.23" width="970" height="690"/>
    <rect class="cls-9" x="180" y="110.23" width="970" height="690"/>
    <rect class="cls-9" x="180" y="110.23" width="970" height="690"/>
    <rect class="cls-9" x="180" y="110.23" width="970" height="690"/>
    <rect class="cls-9" x="180" y="110.23" width="970" height="690"/>
    <rect class="cls-9" x="180" y="110.23" width="970" height="690"/>
    <rect class="cls-9" x="180" y="110.23" width="970" height="690"/>
    <path class="cls-10" d="M180.43,473.71h969.46"/>
    <rect class="cls-9" x="180" y="110.23" width="970" height="690"/>
    <path class="cls-11" d="M229.88,747.35l568-195.94,302.18-404.27"/>
    <path id="m5552310466-2" data-name="m5552310466" class="cls-8" d="M1100.08,152.14a5,5,0,1,0-3.53-1.46A5,5,0,0,0,1100.08,152.14Z"/>
    <path id="m5552310466-3" data-name="m5552310466" class="cls-8" d="M871,613.39a5,5,0,1,0-3.53-1.46A5,5,0,0,0,871,613.39Z"/>
    <path id="m5552310466-4" data-name="m5552310466" class="cls-8" d="M797.9,698.87a5,5,0,1,0-3.54-8.53,5,5,0,0,0,0,7.07A5,5,0,0,0,797.9,698.87Z"/>
    <path id="m5552310466-5" data-name="m5552310466" class="cls-8" d="M830.08,753.65a5,5,0,1,0-3.53-1.47A5,5,0,0,0,830.08,753.65Z"/>
    <g>
      <path class="cls-6" d="M994.61,590.46V588h3.21V577.48H994.7v-2.42H1004v2.42h-3.13V588h3.21v2.42Z"/>
      <path class="cls-6" d="M1022,590.46h-3V581l-2.88,5.72h-2.73l-2.88-5.72v9.46h-2.95v-15.4h2.84l4.35,8.8,4.36-8.8H1022Z"/>
      <path class="cls-6" d="M1025.94,575.06h6.4c3.54,0,5.72,2.09,5.72,5.17s-2.27,5.26-5.72,5.26H1029v5h-3.08Zm6.2,7.9a2.56,2.56,0,0,0,2.84-2.73c0-1.52-.88-2.64-2.84-2.64H1029V583Z"/>
      <path class="cls-6" d="M1052.38,590.46h-3.06l-1-3.24h-6l-1,3.24h-3.06l5.53-15.4h3.12Zm-9.3-5.68h4.42l-2.2-6.95Z"/>
      <path class="cls-6" d="M1055.13,575.06h3.08v12.85h7.08v2.55h-10.16Z"/>
      <path class="cls-6" d="M1081.75,590.46h-3.06l-1-3.24h-6l-1,3.24h-3.06l5.52-15.4h3.13Zm-9.31-5.68h4.43l-2.2-6.95Z"/>
    </g>
    <g>
      <path class="cls-6" d="M919.23,782.34v-2.2c0-3.94,2.09-6.91,6.73-6.91a6.07,6.07,0,0,1,6.45,5.79h-2.86a3.41,3.41,0,0,0-3.59-3.26c-2.57,0-3.67,1.76-3.67,4.23v2.51c0,2.46,1.1,4.22,3.67,4.22a3.41,3.41,0,0,0,3.59-3.25h2.86a6.07,6.07,0,0,1-6.45,5.78C921.32,789.25,919.23,786.28,919.23,782.34Z"/>
      <path class="cls-6" d="M935.31,784.85h2.88a2.51,2.51,0,0,0,2.64,1.94,2.73,2.73,0,0,0,2.91-2.86,2.69,2.69,0,0,0-2.82-2.8,2.8,2.8,0,0,0-2.55,1.34h-2.8l1.46-8.93h8.25V776h-5.85l-.64,3.7a4.21,4.21,0,0,1,2.9-1,4.85,4.85,0,0,1,5,5.15c0,3-2.42,5.41-5.88,5.41C938.13,789.25,935.71,787.78,935.31,784.85Z"/>
      <path class="cls-6" d="M951.61,776.62l-3.28,1.21v-2.68l3.81-1.61h2.51v15.4h-3Z"/>
    </g>
    <path id="m5552310466-6" data-name="m5552310466" class="cls-8" d="M924,768.31a5,5,0,1,0-3.54-1.46A5,5,0,0,0,924,768.31Z"/>
    <g>
      <path class="cls-6" d="M1017.5,634.9h-3.06l-1-3.23h-6l-1,3.23h-3l5.52-15.4H1012Zm-9.31-5.68h4.42l-2.2-7Z"/>
      <path class="cls-6" d="M1031.09,628.23v1.9c0,2.75-1.71,5-4.8,5a3.83,3.83,0,0,1-3.27-1.49v5.06h-3V623.46h2.86v1.36a3.94,3.94,0,0,1,3.39-1.63C1029.42,623.19,1031.09,625.53,1031.09,628.23Zm-8.07.14V630a2.55,2.55,0,1,0,5.08,0v-1.62a2.46,2.46,0,0,0-2.55-2.75A2.52,2.52,0,0,0,1023,628.37Z"/>
      <path class="cls-6" d="M1033.58,630.06V628.5c0-3.11,1.84-5.31,5.28-5.31a4.74,4.74,0,0,1,5.1,5v2h-7.48v.29a2.26,2.26,0,0,0,2.42,2.51,2.32,2.32,0,0,0,2.35-1.45h2.62a4.8,4.8,0,0,1-5,3.6C1035.67,635.16,1033.58,633.27,1033.58,630.06Zm2.9-2h4.73v-.28a2.23,2.23,0,0,0-2.35-2.51c-1.72,0-2.38,1.14-2.38,2.68Z"/>
      <path class="cls-6" d="M1046.75,626.52h6.58v2.68h-6.58Z"/>
      <path class="cls-6" d="M1067.74,634.9h-3.23l-3.46-5.39-3.45,5.39h-3.23l5.1-7.85-4.88-7.55h3.16l3.3,5.13,3.31-5.13h3.16l-4.88,7.55Z"/>
    </g>
    <g>
      <path class="cls-6" d="M869.33,773.54h10.78v2.55h-7.7v3.77h7v2.57h-7v4h7.72v2.55h-10.8Z"/>
      <path class="cls-6" d="M883,784.48v-.4h3v.33c0,1.43,1.12,2.47,3.19,2.47,1.82,0,3-.82,3-2.25a1.68,1.68,0,0,0-1.45-1.74l-4-1c-2.33-.6-3.43-1.67-3.43-4,0-2.91,2.2-4.65,5.66-4.65s5.56,1.9,5.56,4.6v.38h-2.84v-.31c0-1.3-.83-2.29-2.72-2.29-1.63,0-2.69.66-2.69,2a1.54,1.54,0,0,0,1.32,1.63l4.23,1.12c2.26.6,3.36,1.94,3.36,4,0,2.93-2.62,4.86-6.09,4.86C885.39,789.25,883,787.49,883,784.48Z"/>
    </g>
    <g>
      <path class="cls-6" d="M705.88,712.77h6.4c3.54,0,5.72,2.09,5.72,5.17s-2.27,5.26-5.72,5.26H709v5h-3.08Zm6.2,7.9a2.56,2.56,0,0,0,2.84-2.73c0-1.52-.88-2.64-2.84-2.64H709v5.37Z"/>
      <path class="cls-6" d="M720.55,716.73h2.84V719c.37-1.71,1.71-2.31,3.43-2.31h.35v3h-.62c-1.95,0-3,1-3,3.28v5.28h-3Z"/>
      <path class="cls-6" d="M731.46,712a1.74,1.74,0,1,1-1.74,1.74A1.69,1.69,0,0,1,731.46,712Zm-1.5,4.73h3v11.44h-3Z"/>
      <path class="cls-6" d="M736.15,723.26v-1.62c0-2.93,2-5.17,5.39-5.17s5.39,2.24,5.39,5.17v1.62c0,2.93-2,5.17-5.39,5.17S736.15,726.19,736.15,723.26Zm7.87-1.82a2.49,2.49,0,1,0-5,0v2a2.49,2.49,0,1,0,5,0Z"/>
      <path class="cls-6" d="M749.92,716.73h2.84V719c.37-1.71,1.71-2.31,3.43-2.31h.35v3h-.61c-2,0-3,1-3,3.28v5.28h-3Z"/>
      <path class="cls-6" d="M758.94,724.91a1.72,1.72,0,1,1-1.72,1.72A1.63,1.63,0,0,1,758.94,724.91Z"/>
      <path class="cls-6" d="M775.64,712.77c4.13,0,6.31,2.55,6.31,6.05v3.3c0,3.5-2.18,6-6.31,6h-6.25v-15.4Zm3.25,6c0-2.25-1.3-3.52-3.78-3.52h-2.66v10.38h2.66c2.48,0,3.78-1.27,3.78-3.52Z"/>
      <path class="cls-6" d="M798.67,721.59a6.85,6.85,0,0,1-2.2,5.37l1.15,1.72-2.16,1.41-1.25-1.92a9,9,0,0,1-2.4.31c-4.51,0-6.87-3-6.87-6.89v-2.24c0-3.92,2.36-6.89,6.87-6.89s6.86,3,6.86,6.89Zm-6,4.27L791.48,724l2.13-1.32,1.23,1.85a4.71,4.71,0,0,0,.75-2.77v-2.56c0-2.44-1.21-4.18-3.78-4.18s-3.79,1.74-3.79,4.18v2.56c0,2.44,1.21,4.18,3.79,4.18A6,6,0,0,0,792.69,725.86Z"/>
      <path class="cls-6" d="M802.14,712.77h2.93L811.78,723V712.77h3v15.4h-2.93l-6.71-10.25v10.25h-3Z"/>
    </g>
    <g>
      <path class="cls-6" d="M694.33,654.55c4.13,0,6.31,2.56,6.31,6.06v3.3c0,3.49-2.18,6.05-6.31,6.05h-6.25V654.55Zm3.25,6c0-2.24-1.3-3.52-3.78-3.52h-2.67v10.39h2.67c2.48,0,3.78-1.28,3.78-3.52Z"/>
      <path class="cls-6" d="M714,670h-2.86v-1.37a3.77,3.77,0,0,1-3.32,1.63c-2.58,0-4-1.78-4-4.38v-7.32h3v6.9c0,1.46.69,2.29,2,2.29A2.06,2.06,0,0,0,711,665.4v-6.88h3Z"/>
      <path class="cls-6" d="M716.94,665.12v-1.57c0-3.1,1.85-5.3,5.28-5.3a4.74,4.74,0,0,1,5.1,5v2h-7.48v.29a2.26,2.26,0,0,0,2.42,2.5,2.35,2.35,0,0,0,2.36-1.45h2.62a4.83,4.83,0,0,1-5,3.61C719,670.22,716.94,668.33,716.94,665.12Zm2.9-2h4.73v-.29a2.23,2.23,0,0,0-2.35-2.51c-1.72,0-2.38,1.15-2.38,2.69Z"/>
      <path class="cls-6" d="M730.38,653.89h3V670h-3Z"/>
      <path class="cls-6" d="M738.28,666.7a1.72,1.72,0,1,1-1.72,1.72A1.63,1.63,0,0,1,738.28,666.7Z"/>
      <path class="cls-6" d="M755,654.55c4.14,0,6.31,2.56,6.31,6.06v3.3c0,3.49-2.17,6.05-6.31,6.05h-6.25V654.55Zm3.25,6c0-2.24-1.29-3.52-3.78-3.52h-2.66v10.39h2.66c2.49,0,3.78-1.28,3.78-3.52Z"/>
      <path class="cls-6" d="M778,663.38a6.86,6.86,0,0,1-2.2,5.37l1.15,1.71-2.16,1.41L773.54,670a8.88,8.88,0,0,1-2.39.3c-4.51,0-6.87-3-6.87-6.88v-2.25c0-3.91,2.36-6.88,6.87-6.88s6.86,3,6.86,6.88Zm-6,4.27-1.21-1.87,2.13-1.32,1.23,1.84a4.69,4.69,0,0,0,.75-2.77V661c0-2.44-1.21-4.18-3.78-4.18s-3.79,1.74-3.79,4.18v2.55c0,2.44,1.21,4.18,3.79,4.18A6.09,6.09,0,0,0,772,667.65Z"/>
      <path class="cls-6" d="M781.49,654.55h2.92l6.71,10.26V654.55h3V670h-2.93L784.5,659.7V670h-3Z"/>
    </g>
    <g>
      <path class="cls-6" d="M726,775.76h6.41c3.54,0,5.72,2.09,5.72,5.17s-2.27,5.26-5.72,5.26H729v5H726Zm6.21,7.9a2.56,2.56,0,0,0,2.84-2.73c0-1.52-.88-2.64-2.84-2.64H729v5.37Z"/>
      <path class="cls-6" d="M740.05,786.25v-1.62c0-2.93,2-5.18,5.4-5.18s5.39,2.25,5.39,5.18v1.62c0,2.93-2,5.17-5.39,5.17S740.05,789.18,740.05,786.25Zm7.88-1.82a2.49,2.49,0,1,0-5,0v2a2.49,2.49,0,1,0,5,0Z"/>
      <path class="cls-6" d="M764.89,784.49v1.9c0,2.75-1.71,5-4.79,5a3.84,3.84,0,0,1-3.28-1.49V795h-3V779.72h2.86v1.36a3.92,3.92,0,0,1,3.38-1.63C763.22,779.45,764.89,781.79,764.89,784.49Zm-8.07.14v1.67a2.55,2.55,0,1,0,5.08,0v-1.62a2.46,2.46,0,0,0-2.55-2.75A2.52,2.52,0,0,0,756.82,784.63Z"/>
      <path class="cls-6" d="M767.62,782.78h6.58v2.68h-6.58Z"/>
      <path class="cls-6" d="M789.75,791.16h-3l-1-3.23h-6l-1,3.23h-3.06l5.53-15.4h3.12Zm-9.3-5.68h4.42l-2.2-7Z"/>
      <path class="cls-6" d="M792.28,779.72h2.84v2.22c.37-1.72,1.72-2.31,3.43-2.31h.36v3h-.62c-2,0-3,1-3,3.28v5.28h-3Z"/>
      <path class="cls-6" d="M802.25,787.9v-5.76h-1.63v-2.42h1.63v-3.13h3v3.13h2.45v2.42h-2.45v5.54c0,.75.29,1.06,1.08,1.06h1.21v2.42h-2.07C803.28,791.16,802.25,789.93,802.25,787.9Z"/>
    </g>
    <path id="m5552310466-7" data-name="m5552310466" class="cls-8" d="M873.63,768.31a5,5,0,1,0-3.53-1.46A5,5,0,0,0,873.63,768.31Z"/>
    <path id="m5552310466-8" data-name="m5552310466" class="cls-8" d="M953.15,758.82a5,5,0,1,0-3.53-1.46A5,5,0,0,0,953.15,758.82Z"/>
    <g>
      <path class="cls-6" d="M243.17,754.56h3.08v12.85h7.08V770H243.17Z"/>
      <path class="cls-6" d="M258,753.79a1.74,1.74,0,1,1-1.74,1.74A1.69,1.69,0,0,1,258,753.79Zm-1.5,4.73h3V770h-3Z"/>
      <path class="cls-6" d="M263.14,758.52H266v1.36a3.55,3.55,0,0,1,3.37-1.62c2.49,0,4.05,1.62,4.05,4.37V770h-3v-6.84c0-1.32-.63-2.27-2.09-2.27a2.07,2.07,0,0,0-2.2,2.34V770h-3Z"/>
      <path class="cls-6" d="M276.3,765.12v-1.56c0-3.1,1.85-5.3,5.28-5.3a4.73,4.73,0,0,1,5.1,5v2H279.2v.28a2.27,2.27,0,0,0,2.42,2.51,2.35,2.35,0,0,0,2.36-1.45h2.62a4.83,4.83,0,0,1-5,3.61C278.39,770.23,276.3,768.33,276.3,765.12Zm2.9-2h4.73v-.28a2.23,2.23,0,0,0-2.35-2.51c-1.72,0-2.38,1.14-2.38,2.68Z"/>
      <path class="cls-6" d="M289.15,766.66c0-2.48,1.87-3.63,4.62-3.63a4.6,4.6,0,0,1,2.9,1v-1.56a1.82,1.82,0,0,0-2-1.85,2.05,2.05,0,0,0-2,1.08h-2.77a4.69,4.69,0,0,1,4.91-3.41c2.86,0,4.82,1.74,4.82,4.4V770h-2.89v-1.05a4.33,4.33,0,0,1-3.3,1.32C290.91,770.23,289.15,768.88,289.15,766.66Zm7.52-.11c0-1-1-1.6-2.33-1.6s-2.29.57-2.29,1.62.95,1.68,2.2,1.68S296.67,767.52,296.67,766.55Z"/>
      <path class="cls-6" d="M303.05,758.52h2.84v2.22c.37-1.71,1.72-2.31,3.43-2.31h.35v3h-.61c-2,0-3,1-3,3.28V770h-3Z"/>
    </g>
    <g>
      <path class="cls-6" d="M1050.14,149.52h-3.23v4.93h-3.08v-15.4h7c3.63,0,5.57,2.24,5.57,5.24a5,5,0,0,1-3,4.75l3.21,5.41H1053Zm.27-2.48a2.61,2.61,0,0,0,2.86-2.78,2.54,2.54,0,0,0-2.86-2.7h-3.5V147Z"/>
      <path class="cls-6" d="M1059.74,139.05h2.92l6.71,10.25V139.05h3v15.4h-2.93l-6.71-10.25v10.25h-3Z"/>
      <path class="cls-6" d="M1082.57,139.05c4.14,0,6.32,2.55,6.32,6v3.3c0,3.5-2.18,6-6.32,6h-6.25v-15.4Zm3.26,6c0-2.25-1.3-3.52-3.79-3.52h-2.66v10.38H1082c2.49,0,3.79-1.27,3.79-3.52Z"/>
    </g>
    <g>
      <path class="cls-6" d="M542.27,755.22c4.14,0,6.32,2.55,6.32,6v3.3c0,3.5-2.18,6-6.32,6H536v-15.4Zm3.26,6c0-2.25-1.3-3.52-3.79-3.52h-2.66v10.38h2.66c2.49,0,3.79-1.27,3.79-3.52Z"/>
      <path class="cls-6" d="M565.31,764a6.85,6.85,0,0,1-2.2,5.37l1.14,1.72-2.16,1.41-1.25-1.92a9,9,0,0,1-2.4.31c-4.51,0-6.86-3-6.86-6.89V761.8c0-3.92,2.35-6.89,6.86-6.89s6.87,3,6.87,6.89Zm-6,4.27-1.21-1.87,2.14-1.32,1.23,1.85a4.79,4.79,0,0,0,.75-2.77v-2.56c0-2.44-1.21-4.18-3.79-4.18s-3.78,1.74-3.78,4.18v2.56c0,2.44,1.21,4.18,3.78,4.18A4.83,4.83,0,0,0,559.32,768.31Z"/>
      <path class="cls-6" d="M568.78,755.22h2.93l6.71,10.25V755.22h3v15.4H578.5l-6.71-10.25v10.25h-3Z"/>
    </g>
    <path id="m5552310466-9" data-name="m5552310466" class="cls-8" d="M729.74,768.31a5,5,0,1,0-3.54-1.46A5,5,0,0,0,729.74,768.31Z"/>
    <path id="m5552310466-10" data-name="m5552310466" class="cls-8" d="M747.15,764.19a5,5,0,1,0-3.53-1.47A5,5,0,0,0,747.15,764.19Z"/>
    <path id="m5552310466-11" data-name="m5552310466" class="cls-8" d="M592.28,768.31a5,5,0,1,0-3.54-1.46A5,5,0,0,0,592.28,768.31Z"/>
    <path id="m5552310466-12" data-name="m5552310466" class="cls-8" d="M231.77,767.65a5,5,0,1,0-3.53-1.46A5,5,0,0,0,231.77,767.65Z"/>
    <path id="m5552310466-13" data-name="m5552310466" class="cls-8" d="M945.2,583.46a5,5,0,1,0-3.53-1.46A5,5,0,0,0,945.2,583.46Z"/>
    <path id="m5552310466-14" data-name="m5552310466" class="cls-8" d="M1008.82,614.27a5,5,0,1,0-3.54-1.46A5,5,0,0,0,1008.82,614.27Z"/>
    <g>
      <path class="cls-6" d="M909.85,514.38h10.53v2.55h-7.45V521h6.79v2.55h-6.79v6.23h-3.08Z"/>
      <path class="cls-6" d="M922.54,524.94v-1.56c0-3.11,1.85-5.31,5.28-5.31a4.74,4.74,0,0,1,5.1,5v2h-7.48v.29a2.27,2.27,0,0,0,2.42,2.51,2.34,2.34,0,0,0,2.36-1.46h2.62a4.83,4.83,0,0,1-5,3.61C924.63,530,922.54,528.15,922.54,524.94Zm2.9-2h4.73v-.29a2.23,2.23,0,0,0-2.35-2.51c-1.72,0-2.38,1.15-2.38,2.69Z"/>
      <path class="cls-6" d="M935.39,526.48c0-2.49,1.87-3.63,4.62-3.63a4.6,4.6,0,0,1,2.9,1v-1.57a1.81,1.81,0,0,0-2-1.84,2.06,2.06,0,0,0-2,1.07h-2.77a4.7,4.7,0,0,1,4.91-3.41c2.86,0,4.82,1.74,4.82,4.4v7.31H943v-1.06a4.33,4.33,0,0,1-3.3,1.32C937.15,530,935.39,528.7,935.39,526.48Zm7.52-.11c0-1-1-1.61-2.33-1.61s-2.29.57-2.29,1.63,1,1.67,2.2,1.67S942.91,527.34,942.91,526.37Z"/>
      <path class="cls-6" d="M949.78,526.52v-5.76h-1.63v-2.42h1.63v-3.13h3v3.13h2.44v2.42h-2.44v5.54c0,.75.29,1.06,1.08,1.06h1.21v2.42H953C950.81,529.78,949.78,528.55,949.78,526.52Z"/>
      <path class="cls-6" d="M968.1,529.78h-2.86v-1.37a3.77,3.77,0,0,1-3.32,1.63c-2.57,0-4-1.78-4-4.38v-7.32h3v6.91c0,1.45.68,2.28,2,2.28a2.06,2.06,0,0,0,2.18-2.31v-6.88h3Z"/>
      <path class="cls-6" d="M971.6,518.34h2.84v2.22c.37-1.72,1.71-2.31,3.43-2.31h.35v3h-.61c-2,0-3,1-3,3.28v5.28h-3Z"/>
      <path class="cls-6" d="M980.09,524.94v-1.56c0-3.11,1.85-5.31,5.28-5.31a4.75,4.75,0,0,1,5.11,5v2H983v.29a2.26,2.26,0,0,0,2.42,2.51,2.34,2.34,0,0,0,2.35-1.46h2.62a4.81,4.81,0,0,1-5,3.61C982.18,530,980.09,528.15,980.09,524.94Zm2.91-2h4.73v-.29a2.24,2.24,0,0,0-2.36-2.51c-1.71,0-2.37,1.15-2.37,2.69Z"/>
      <path class="cls-6" d="M993.27,521.4h6.58v2.68h-6.58Z"/>
      <path class="cls-6" d="M1003.3,514.38h10.78v2.55h-7.7v3.76h7v2.58h-7v4h7.73v2.55H1003.3Z"/>
      <path class="cls-6" d="M1017.45,514.38h6.91c2.7,0,4.4,1.58,4.4,3.89a3.88,3.88,0,0,1-1.94,3.54,3.48,3.48,0,0,1,2.86,3.63c0,2.58-2.13,4.34-5.21,4.34h-7Zm6.22,6.38a1.89,1.89,0,0,0,2-2,1.83,1.83,0,0,0-2-1.91h-3.21v4Zm.64,6.6a2,2,0,0,0,2.29-2.11,2,2,0,0,0-2.31-2.09h-3.85v4.2Z"/>
    </g>
    <g>
      <path class="cls-12" d="M211.1,463.71H208l-1-3.23h-6l-1,3.23h-3.06l5.53-15.4h3.12ZM201.8,458h4.42l-2.2-7Z"/>
      <path class="cls-12" d="M218.32,463.71h-3.13l-3.89-11.44h3l2.47,8.38,2.46-8.38h3Z"/>
      <path class="cls-12" d="M223.75,458.87v-1.56c0-3.1,1.85-5.3,5.28-5.3a4.74,4.74,0,0,1,5.11,5v2h-7.49v.28a2.27,2.27,0,0,0,2.43,2.51,2.34,2.34,0,0,0,2.35-1.45h2.62a4.81,4.81,0,0,1-5,3.61C225.84,464,223.75,462.09,223.75,458.87Zm2.9-2h4.74v-.28a2.24,2.24,0,0,0-2.36-2.51c-1.72,0-2.38,1.14-2.38,2.68Z"/>
      <path class="cls-12" d="M237.13,452.27H240v2.22c.37-1.71,1.71-2.31,3.43-2.31h.35v3h-.62c-1.95,0-3,1-3,3.28v5.28h-3Z"/>
      <path class="cls-12" d="M245.38,460.41c0-2.48,1.87-3.63,4.62-3.63a4.6,4.6,0,0,1,2.9,1v-1.56a1.82,1.82,0,0,0-2-1.85,2.05,2.05,0,0,0-2,1.08h-2.77a4.7,4.7,0,0,1,4.91-3.41c2.86,0,4.81,1.74,4.81,4.4v7.3H253v-1a4.33,4.33,0,0,1-3.3,1.32C247.14,464,245.38,462.63,245.38,460.41Zm7.52-.11c0-1-1-1.6-2.33-1.6s-2.29.57-2.29,1.62.95,1.68,2.2,1.68S252.9,461.27,252.9,460.3Z"/>
      <path class="cls-12" d="M258.91,464.39h2.9a2.53,2.53,0,0,0,2.47,1.15c1.51,0,2.48-.84,2.48-2.11v-1.81a4,4,0,0,1-3.28,1.56,4.51,4.51,0,0,1-4.71-4.75v-1.67a4.48,4.48,0,0,1,4.74-4.75,3.79,3.79,0,0,1,3.38,1.65v-1.39h2.86v11.2c0,2.44-2.28,4.34-5.47,4.34C261.59,467.81,259.37,466.55,258.91,464.39Zm7.85-6.11V457a2.4,2.4,0,0,0-2.48-2.55,2.31,2.31,0,0,0-2.53,2.55v1.32a2.28,2.28,0,0,0,2.44,2.51A2.41,2.41,0,0,0,266.76,458.28Z"/>
      <path class="cls-12" d="M272.74,458.87v-1.56c0-3.1,1.85-5.3,5.29-5.3a4.74,4.74,0,0,1,5.1,5v2h-7.48v.28a2.26,2.26,0,0,0,2.42,2.51,2.32,2.32,0,0,0,2.35-1.45H283a4.81,4.81,0,0,1-5,3.61C274.83,464,272.74,462.09,272.74,458.87Zm2.91-2h4.73v-.28a2.24,2.24,0,0,0-2.35-2.51c-1.72,0-2.38,1.14-2.38,2.68Z"/>
      <path class="cls-12" d="M291.73,448.31h3.08v6.32h6.32v-6.32h3.08v15.4h-3.08v-6.36h-6.32v6.36h-3.08Z"/>
      <path class="cls-12" d="M318,463.71h-2.86v-1.36a3.77,3.77,0,0,1-3.32,1.63c-2.58,0-4-1.79-4-4.38v-7.33h3v6.91c0,1.45.68,2.29,2,2.29a2.06,2.06,0,0,0,2.18-2.31v-6.89h3Z"/>
      <path class="cls-12" d="M321.5,452.27h2.86v1.37a3.42,3.42,0,0,1,3.3-1.63,3.75,3.75,0,0,1,3.3,1.63,4.5,4.5,0,0,1,3.78-1.63c2.4,0,4.09,1.63,4.09,4.38v7.32h-3v-6.84c0-1.32-.59-2.27-2-2.27s-2.14.8-2.14,2.34v6.77h-3v-6.84c0-1.32-.59-2.27-2.05-2.27s-2.13.8-2.13,2.34v6.77h-3Z"/>
      <path class="cls-12" d="M341.74,460.41c0-2.48,1.87-3.63,4.62-3.63a4.6,4.6,0,0,1,2.9,1v-1.56a1.82,1.82,0,0,0-2-1.85,2.05,2.05,0,0,0-2,1.08h-2.77a4.7,4.7,0,0,1,4.91-3.41c2.86,0,4.81,1.74,4.81,4.4v7.3h-2.88v-1a4.33,4.33,0,0,1-3.3,1.32C343.5,464,341.74,462.63,341.74,460.41Zm7.52-.11c0-1-1-1.6-2.33-1.6s-2.29.57-2.29,1.62.95,1.68,2.2,1.68S349.26,461.27,349.26,460.3Z"/>
      <path class="cls-12" d="M355.64,452.27h2.86v1.37a3.54,3.54,0,0,1,3.37-1.63c2.48,0,4.05,1.63,4.05,4.38v7.32h-3v-6.84c0-1.32-.63-2.27-2.09-2.27a2.07,2.07,0,0,0-2.2,2.34v6.77h-3Z"/>
    </g>
    <line class="cls-7" x1="644.91" y1="758.14" x2="644.91" y2="740.51"/>
    <line class="cls-7" x1="711.18" y1="760.17" x2="711.18" y2="733.17"/>
    <line class="cls-7" x1="693.38" y1="760.17" x2="693.38" y2="674.96"/>
    <line class="cls-7" x1="229.88" y1="747.35" x2="229.88" y2="712.36"/>
    <g>
      <path class="cls-6" d="M225.09,702.52v-.4H228v.33c0,1.43,1.12,2.47,3.19,2.47,1.83,0,3-.82,3-2.25a1.67,1.67,0,0,0-1.45-1.74l-4-1c-2.34-.6-3.44-1.67-3.44-4,0-2.91,2.2-4.65,5.66-4.65s5.56,1.9,5.56,4.6v.38h-2.83v-.31c0-1.3-.84-2.29-2.73-2.29-1.63,0-2.69.66-2.69,2a1.55,1.55,0,0,0,1.32,1.63l4.23,1.12c2.26.6,3.36,1.94,3.36,4,0,2.93-2.61,4.86-6.09,4.86C227.49,707.29,225.09,705.53,225.09,702.52Z"/>
      <path class="cls-6" d="M253,707H250l-1-3.23h-6l-1,3.23h-3.06l5.52-15.4h3.13Zm-9.31-5.67h4.43l-2.2-7Z"/>
      <path class="cls-6" d="M262.07,702.05h-3.23V707h-3.08v-15.4h6.95c3.63,0,5.57,2.25,5.57,5.24a5,5,0,0,1-3,4.75l3.21,5.41h-3.56Zm.27-2.48a2.6,2.6,0,0,0,2.86-2.77,2.55,2.55,0,0,0-2.86-2.71h-3.5v5.48Z"/>
      <path class="cls-6" d="M271.18,702.52v-.4h2.95v.33c0,1.43,1.12,2.47,3.19,2.47,1.83,0,3-.82,3-2.25a1.67,1.67,0,0,0-1.45-1.74l-4-1c-2.34-.6-3.44-1.67-3.44-4,0-2.91,2.2-4.65,5.66-4.65s5.56,1.9,5.56,4.6v.38h-2.83v-.31c0-1.3-.84-2.29-2.73-2.29-1.63,0-2.69.66-2.69,2a1.55,1.55,0,0,0,1.32,1.63l4.23,1.12c2.26.6,3.36,1.94,3.36,4,0,2.93-2.61,4.86-6.09,4.86S271.18,705.53,271.18,702.52Z"/>
      <path class="cls-6" d="M299.1,707H296l-1-3.23h-6L288,707h-3.06l5.52-15.4h3.13Zm-9.31-5.67h4.42l-2.2-7Z"/>
    </g>
    <g>
      <path class="cls-6" d="M724.06,618.62c4.14,0,6.32,2.55,6.32,6V628c0,3.5-2.18,6-6.32,6h-6.25v-15.4Zm3.26,6c0-2.25-1.3-3.52-3.79-3.52h-2.66v10.38h2.66c2.49,0,3.79-1.27,3.79-3.52Z"/>
      <path class="cls-6" d="M747.1,627.44a6.85,6.85,0,0,1-2.2,5.37l1.14,1.72-2.16,1.4L742.63,634a9,9,0,0,1-2.4.31c-4.51,0-6.86-3-6.86-6.89V625.2c0-3.92,2.35-6.89,6.86-6.89s6.87,3,6.87,6.89Zm-6,4.27-1.21-1.87,2.14-1.32,1.23,1.85a4.82,4.82,0,0,0,.75-2.78V625c0-2.44-1.21-4.18-3.79-4.18s-3.78,1.74-3.78,4.18v2.55c0,2.45,1.21,4.19,3.78,4.19A5.92,5.92,0,0,0,741.11,631.71Z"/>
      <path class="cls-6" d="M750.57,618.62h2.93l6.71,10.25V618.62h3V634H760.3l-6.72-10.25V634h-3Z"/>
      <path class="cls-6" d="M766.67,625.64h6.58v2.68h-6.58Z"/>
      <path class="cls-6" d="M776.71,618.62h6.4c3.54,0,5.72,2.09,5.72,5.17s-2.27,5.26-5.72,5.26h-3.32v5h-3.08Zm6.2,7.9a2.56,2.56,0,0,0,2.84-2.73c0-1.52-.88-2.64-2.84-2.64h-3.12v5.37Z"/>
      <path class="cls-6" d="M793.07,617.85a1.74,1.74,0,1,1-1.73,1.74A1.69,1.69,0,0,1,793.07,617.85Zm-1.49,4.73h3V634h-3Z"/>
      <path class="cls-6" d="M808.26,634h-3.15l-2.38-3.56L800.36,634h-3.15l4-5.81-3.85-5.63h3.11l2.26,3.39,2.27-3.39h3.1l-3.85,5.63Z"/>
      <path class="cls-6" d="M809.75,629.18v-1.56c0-3.11,1.85-5.31,5.28-5.31a4.75,4.75,0,0,1,5.11,5v2h-7.49v.29a2.27,2.27,0,0,0,2.43,2.51,2.34,2.34,0,0,0,2.35-1.46h2.62a4.8,4.8,0,0,1-5,3.61C811.84,634.28,809.75,632.39,809.75,629.18Zm2.9-2h4.74v-.29a2.23,2.23,0,0,0-2.36-2.5c-1.72,0-2.38,1.14-2.38,2.68Z"/>
      <path class="cls-6" d="M823.19,618h3V634h-3Z"/>
      <path class="cls-6" d="M829.51,627.42v-2.2c0-3.94,2.09-6.91,6.73-6.91a6.07,6.07,0,0,1,6.45,5.79h-2.86a3.41,3.41,0,0,0-3.59-3.26c-2.57,0-3.67,1.76-3.67,4.22v2.51c0,2.47,1.1,4.23,3.67,4.23a3.41,3.41,0,0,0,3.59-3.26h2.86a6.07,6.07,0,0,1-6.45,5.79C831.6,634.33,829.51,631.36,829.51,627.42Z"/>
      <path class="cls-6" d="M846.05,618.62H849l6.71,10.25V618.62h3V634h-2.92l-6.71-10.25V634h-3Z"/>
      <path class="cls-6" d="M862.64,618.62h2.93l6.71,10.25V618.62h3V634h-2.93l-6.71-10.25V634h-3Z"/>
    </g>
    <g>
      <path class="cls-6" d="M693.48,526c4.14,0,6.32,2.55,6.32,6v3.3c0,3.5-2.18,6-6.32,6h-6.25V526Zm3.26,6c0-2.24-1.3-3.52-3.79-3.52h-2.66V538.9H693c2.49,0,3.79-1.27,3.79-3.52Z"/>
      <path class="cls-6" d="M709.5,526c4.13,0,6.31,2.55,6.31,6v3.3c0,3.5-2.18,6-6.31,6h-6.25V526Zm3.25,6c0-2.24-1.29-3.52-3.78-3.52h-2.66V538.9H709c2.49,0,3.78-1.27,3.78-3.52Z"/>
      <path class="cls-6" d="M732.53,534.83a6.83,6.83,0,0,1-2.2,5.37l1.15,1.72-2.16,1.41-1.25-1.92a9,9,0,0,1-2.4.31c-4.51,0-6.87-3-6.87-6.89v-2.24c0-3.92,2.36-6.89,6.87-6.89s6.86,3,6.86,6.89Zm-6,4.27-1.21-1.87,2.13-1.32,1.23,1.85a4.69,4.69,0,0,0,.75-2.77v-2.56c0-2.44-1.21-4.18-3.78-4.18s-3.79,1.74-3.79,4.18V535c0,2.44,1.21,4.18,3.79,4.18A4.91,4.91,0,0,0,726.55,539.1Z"/>
      <path class="cls-6" d="M736,526h2.92l6.71,10.25V526h3v15.4h-2.93L739,531.16v10.25h-3Z"/>
      <path class="cls-6" d="M752.11,533h6.58v2.68h-6.58Z"/>
      <path class="cls-6" d="M761.68,534.81v-2.2c0-3.94,2.09-6.91,6.73-6.91a6.06,6.06,0,0,1,6.45,5.79H772a3.41,3.41,0,0,0-3.59-3.26c-2.57,0-3.67,1.76-3.67,4.23V535c0,2.46,1.1,4.22,3.67,4.22a3.41,3.41,0,0,0,3.59-3.26h2.86a6.06,6.06,0,0,1-6.45,5.79C763.77,541.72,761.68,538.75,761.68,534.81Z"/>
      <path class="cls-6" d="M781.13,528.56h-4.36V526h11.8v2.55h-4.36v12.85h-3.08Z"/>
      <path class="cls-6" d="M790.72,537v-.4h2.95v.33c0,1.43,1.12,2.46,3.19,2.46,1.83,0,3-.81,3-2.24a1.67,1.67,0,0,0-1.45-1.74l-4-1c-2.33-.6-3.43-1.67-3.43-4,0-2.9,2.2-4.64,5.66-4.64s5.56,1.89,5.56,4.6v.37h-2.84v-.3c0-1.3-.83-2.29-2.72-2.29-1.63,0-2.69.66-2.69,2a1.54,1.54,0,0,0,1.32,1.63l4.23,1.12c2.26.59,3.36,1.94,3.36,4,0,2.92-2.61,4.86-6.09,4.86S790.72,540,790.72,537Z"/>
    </g>
    <path id="m5552310466-15" data-name="m5552310466" class="cls-8" d="M999.35,605.46a5,5,0,1,0-3.53-1.46A5,5,0,0,0,999.35,605.46Z"/>
    <g>
      <path class="cls-6" d="M940.79,562.92v-9.86h3.06v10a3.27,3.27,0,0,0,6.53,0v-10h3.08v9.86c0,3.47-2.35,5.85-6.34,5.85S940.79,566.39,940.79,562.92Z"/>
      <path class="cls-6" d="M957.29,553.06h6.91c2.7,0,4.4,1.58,4.4,3.89a3.91,3.91,0,0,1-1.94,3.55,3.48,3.48,0,0,1,2.86,3.63c0,2.57-2.13,4.33-5.22,4.33h-7Zm6.22,6.38a1.89,1.89,0,0,0,2-2.05,1.83,1.83,0,0,0-2-1.91h-3.21v4Zm.64,6.6a2,2,0,0,0,2.29-2.11,2,2,0,0,0-2.31-2.09h-3.85V566Z"/>
      <path class="cls-6" d="M972.42,553.06H983.2v2.55h-7.7v3.76h7V562h-7v4h7.73v2.55H972.42Z"/>
    </g>
    <path id="m5552310466-16" data-name="m5552310466" class="cls-8" d="M797.9,556.41a5,5,0,1,0-3.54-1.46A5,5,0,0,0,797.9,556.41Z"/>
    <g>
      <path class="cls-6" d="M822.27,701.18h-3.06l-1-3.24h-6l-1,3.24H808.1l5.52-15.4h3.13ZM813,695.5h4.43l-2.2-7Z"/>
      <path class="cls-6" d="M825.26,685.78h9.68v2.44L831,692.16c2.51.11,4.56,1.58,4.56,4.46s-2.58,4.87-5.7,4.87-5.48-1.65-5.55-4.82h2.82a2.53,2.53,0,0,0,2.75,2.38,2.44,2.44,0,0,0,2.69-2.36c0-1.36-1-2.22-2.67-2.22h-2.26V692l3.61-3.83h-6Z"/>
      <path class="cls-6" d="M838.55,694.58v-2.2c0-3.94,2.09-6.91,6.73-6.91a6.07,6.07,0,0,1,6.45,5.79h-2.86a3.41,3.41,0,0,0-3.59-3.26c-2.57,0-3.67,1.76-3.67,4.22v2.51c0,2.47,1.1,4.23,3.67,4.23a3.41,3.41,0,0,0,3.59-3.26h2.86a6.07,6.07,0,0,1-6.45,5.79C840.64,701.49,838.55,698.52,838.55,694.58Z"/>
      <path class="cls-6" d="M854.61,692.8h6.58v2.68h-6.58Z"/>
      <path class="cls-6" d="M864.18,694.58v-2.2c0-3.94,2.09-6.91,6.73-6.91a6.07,6.07,0,0,1,6.45,5.79H874.5a3.41,3.41,0,0,0-3.59-3.26c-2.57,0-3.67,1.76-3.67,4.22v2.51c0,2.47,1.1,4.23,3.67,4.23a3.41,3.41,0,0,0,3.59-3.26h2.86a6.07,6.07,0,0,1-6.45,5.79C866.27,701.49,864.18,698.52,864.18,694.58Z"/>
      <path class="cls-6" d="M883.63,688.33h-4.36v-2.55h11.79v2.55h-4.35v12.85h-3.08Z"/>
      <path class="cls-6" d="M893.22,696.71v-.39h2.95v.33c0,1.43,1.12,2.46,3.19,2.46,1.82,0,3-.81,3-2.24a1.67,1.67,0,0,0-1.45-1.74l-4-1c-2.33-.59-3.43-1.67-3.43-4,0-2.9,2.2-4.64,5.66-4.64s5.56,1.89,5.56,4.6v.37h-2.84v-.31c0-1.29-.83-2.29-2.72-2.29-1.63,0-2.69.67-2.69,2a1.54,1.54,0,0,0,1.32,1.63L902,692.6c2.26.59,3.36,1.93,3.36,4,0,2.93-2.62,4.87-6.09,4.87C895.62,701.49,893.22,699.73,893.22,696.71Z"/>
    </g>
    <g>
      <path class="cls-6" d="M771.53,766.49h-3.06l-1-3.23h-6l-1,3.23h-3.06l5.52-15.4H766Zm-9.31-5.67h4.42l-2.2-7Z"/>
      <path class="cls-6" d="M774.52,751.09h9.68v2.44l-3.94,3.94c2.51.11,4.56,1.59,4.56,4.47s-2.58,4.86-5.7,4.86-5.48-1.65-5.55-4.82h2.82a2.52,2.52,0,0,0,2.75,2.38,2.44,2.44,0,0,0,2.68-2.36c0-1.36-.94-2.22-2.66-2.22h-2.27v-2.44l3.61-3.83h-6Z"/>
      <path class="cls-6" d="M787.81,759.89v-2.2c0-3.94,2.09-6.91,6.73-6.91a6.07,6.07,0,0,1,6.45,5.79h-2.87a3.39,3.39,0,0,0-3.58-3.26c-2.58,0-3.68,1.76-3.68,4.23v2.51c0,2.46,1.1,4.22,3.68,4.22a3.39,3.39,0,0,0,3.58-3.26H801a6.07,6.07,0,0,1-6.45,5.79C789.9,766.8,787.81,763.83,787.81,759.89Z"/>
    </g>
    <path id="m5552310466-17" data-name="m5552310466" class="cls-8" d="M229.88,752.35a5,5,0,1,0-3.53-1.46A5,5,0,0,0,229.88,752.35Z"/>
    <g>
      <path class="cls-6" d="M621.17,685.32c4.14,0,6.32,2.56,6.32,6v3.3c0,3.5-2.18,6.05-6.32,6.05h-6.25v-15.4Zm3.26,6c0-2.24-1.3-3.52-3.79-3.52H618v10.39h2.66c2.49,0,3.79-1.28,3.79-3.52Z"/>
      <path class="cls-6" d="M637.19,685.32c4.13,0,6.31,2.56,6.31,6v3.3c0,3.5-2.18,6.05-6.31,6.05h-6.25v-15.4Zm3.25,6c0-2.24-1.29-3.52-3.78-3.52H634v10.39h2.66c2.49,0,3.78-1.28,3.78-3.52Z"/>
      <path class="cls-6" d="M660.22,694.15a6.82,6.82,0,0,1-2.2,5.36l1.15,1.72L657,702.64l-1.26-1.92a8.87,8.87,0,0,1-2.39.31c-4.51,0-6.87-3-6.87-6.88V691.9c0-3.92,2.36-6.89,6.87-6.89s6.86,3,6.86,6.89Zm-6,4.26L653,696.54l2.13-1.32,1.23,1.85a4.69,4.69,0,0,0,.75-2.77v-2.55c0-2.45-1.21-4.18-3.78-4.18s-3.79,1.73-3.79,4.18v2.55c0,2.44,1.21,4.18,3.79,4.18A4.91,4.91,0,0,0,654.24,698.41Z"/>
      <path class="cls-6" d="M663.7,685.32h2.92l6.71,10.26V685.32h3v15.4h-2.93l-6.71-10.25v10.25h-3Z"/>
    </g>
    <g>
      <path class="cls-6" d="M598.19,725a3.14,3.14,0,0,0-3.43-3c-2.51,0-3.7,1.65-3.7,4.22v2.42c0,2.58,1.06,4.38,3.72,4.38,2.25,0,3.48-1.39,3.48-3.08v-.22H594.8v-2.51h6.47v2c0,3.7-2.57,6.27-6.53,6.27-4.58,0-6.74-3.08-6.74-6.9v-2.25c0-4.13,2.47-6.86,6.67-6.86,4,0,6.36,2.35,6.45,5.54Z"/>
      <path class="cls-6" d="M604,730.23V728.6c0-2.92,2-5.17,5.39-5.17s5.39,2.25,5.39,5.17v1.63c0,2.93-2,5.17-5.39,5.17S604,733.16,604,730.23Zm7.88-1.83a2.49,2.49,0,1,0-5,0v2a2.49,2.49,0,1,0,5,0Z"/>
      <path class="cls-6" d="M617.79,723.7h2.84v2.22c.37-1.72,1.72-2.31,3.43-2.31h.35v3h-.61c-2,0-3,1-3,3.28v5.28h-3Z"/>
      <path class="cls-6" d="M628.7,719A1.74,1.74,0,1,1,627,720.7,1.68,1.68,0,0,1,628.7,719Zm-1.49,4.73h3v11.44h-3Z"/>
      <path class="cls-6" d="M634,719.07h3v16.07h-3Z"/>
      <path class="cls-6" d="M640,731.84c0-2.49,1.87-3.63,4.62-3.63a4.61,4.61,0,0,1,2.91,1v-1.56a1.82,1.82,0,0,0-2-1.85,2,2,0,0,0-2,1.08h-2.78a4.71,4.71,0,0,1,4.91-3.41c2.86,0,4.82,1.74,4.82,4.4v7.31h-2.88v-1.06a4.33,4.33,0,0,1-3.3,1.32C641.79,735.4,640,734.06,640,731.84Zm7.53-.11c0-1-1-1.61-2.34-1.61s-2.28.57-2.28,1.63.94,1.67,2.2,1.67S647.56,732.69,647.56,731.73Z"/>
    </g>
    <line class="cls-7" x1="671.04" y1="760.73" x2="671.04" y2="706.1"/>
    <g>
      <path class="cls-6" d="M616.08,789.31h-3v-9.46l-2.88,5.72h-2.73l-2.88-5.72v9.46h-2.95v-15.4h2.84l4.36,8.8,4.35-8.8h2.84Z"/>
      <path class="cls-6" d="M620,773.91h6.4c3.54,0,5.72,2.09,5.72,5.17s-2.27,5.26-5.72,5.26H623.1v5H620Zm6.2,7.9a2.56,2.56,0,0,0,2.84-2.73c0-1.52-.88-2.64-2.84-2.64H623.1v5.37Z"/>
      <path class="cls-6" d="M634.43,780.93H641v2.68h-6.57Z"/>
      <path class="cls-6" d="M644.46,773.91h10.78v2.55h-7.7v3.77h7v2.57h-7v4h7.72v2.55h-10.8Z"/>
      <path class="cls-6" d="M658.6,773.91h6.91c2.71,0,4.4,1.59,4.4,3.9a3.88,3.88,0,0,1-1.93,3.54,3.48,3.48,0,0,1,2.86,3.63c0,2.57-2.14,4.33-5.22,4.33h-7Zm6.23,6.38a1.88,1.88,0,0,0,2-2,1.82,1.82,0,0,0-2-1.92H661.6v4Zm.64,6.6a2,2,0,0,0,2.29-2.11,2,2,0,0,0-2.31-2.09H661.6v4.2Z"/>
    </g>
    <path id="m5552310466-18" data-name="m5552310466" class="cls-8" d="M644.91,763.14a5,5,0,1,0-3.53-1.47A5,5,0,0,0,644.91,763.14Z"/>
    <path id="m5552310466-19" data-name="m5552310466" class="cls-8" d="M693.38,767a5,5,0,1,0-3.53-1.47A5,5,0,0,0,693.38,767Z"/>
    <path id="m5552310466-20" data-name="m5552310466" class="cls-8" d="M711.18,765.17a5,5,0,1,0-3.54-1.46A5,5,0,0,0,711.18,765.17Z"/>
    <path id="m5552310466-21" data-name="m5552310466" class="cls-8" d="M666.5,768.31a5,5,0,1,0-3.54-1.46A5,5,0,0,0,666.5,768.31Z"/>
    <path id="m5552310466-22" data-name="m5552310466" class="cls-8" d="M671,765.73a5,5,0,1,0-3.54-1.47A5,5,0,0,0,671,765.73Z"/>
  </g>
</svg>
